<svg xmlns="http://www.w3.org/2000/svg" viewBox="0 0 128 128" role="img" aria-label="TintMap logo">
  <defs>
    <linearGradient id="tm-g" x1="0" y1="0" x2="1" y2="1">
      <stop offset="0" stop-color="#d2643b"/>
      <stop offset="0.55" stop-color="#d6a14b"/>
      <stop offset="1" stop-color="#0f766e"/>
    </linearGradient>
    <linearGradient id="tm-g2" x1="0" y1="1" x2="1" y2="0">
      <stop offset="0" stop-color="#1f2937"/>
      <stop offset="1" stop-color="#0f766e"/>
    </linearGradient>
  </defs>
  <rect x="10" y="10" width="108" height="108" rx="24" fill="#f7f3ed" stroke="#1f2937" stroke-opacity="0.12" stroke-width="2"/>
  <path d="M64 26c18.8 0 34 15.2 34 34 0 20.2-16.5 33.7-30.1 41.7-2.4 1.4-5.4 1.4-7.8 0C45.5 93.7 30 80.2 30 60c0-18.8 15.2-34 34-34z" fill="url(#tm-g)"/>
  <path d="M43 84c10.5-7.7 17.4-13.7 21-19.2 3.6 5.5 10.5 11.5 21 19.2-7.4 7.3-15.5 12.6-21 15.6-5.5-3-13.6-8.3-21-15.6z" fill="url(#tm-g2)" opacity="0.9"/>
</svg>
